<svg width="30" height="30" viewBox="0 0 30 30" fill="none" xmlns="http://www.w3.org/2000/svg">
<path d="M14.7054 7.37783C10.5543 7.37783 7.206 10.7865 7.206 15.0125C7.206 19.2385 10.5543 22.6472 14.7054 22.6472C18.8565 22.6472 22.2048 19.2385 22.2048 15.0125C22.2048 10.7865 18.8565 7.37783 14.7054 7.37783ZM14.7054 19.9761C12.0229 19.9761 9.82981 17.7501 9.82981 15.0125C9.82981 12.2749 12.0163 10.049 14.7054 10.049C17.3945 10.049 19.581 12.2749 19.581 15.0125C19.581 17.7501 17.388 19.9761 14.7054 19.9761V19.9761ZM24.2608 7.06553C24.2608 8.05558 23.4776 8.8463 22.5116 8.8463C21.5391 8.8463 20.7624 8.04894 20.7624 7.06553C20.7624 6.08212 21.5456 5.28476 22.5116 5.28476C23.4776 5.28476 24.2608 6.08212 24.2608 7.06553ZM29.2278 8.87288C29.1168 6.48745 28.5816 4.37445 26.865 2.63355C25.155 0.892653 23.0794 0.347792 20.7363 0.228188C18.3213 0.0886508 11.083 0.0886508 8.66803 0.228188C6.3314 0.341147 4.25584 0.886008 2.53927 2.62691C0.822692 4.3678 0.294013 6.4808 0.176529 8.86623C0.0394642 11.3247 0.0394642 18.6937 0.176529 21.1522C0.287486 23.5376 0.822692 25.6506 2.53927 27.3915C4.25584 29.1324 6.32487 29.6773 8.66803 29.7969C11.083 29.9364 18.3213 29.9364 20.7363 29.7969C23.0794 29.6839 25.155 29.139 26.865 27.3915C28.5751 25.6506 29.1103 23.5376 29.2278 21.1522C29.3648 18.6937 29.3648 11.3314 29.2278 8.87288V8.87288ZM26.1079 23.7901C25.5988 25.0925 24.6132 26.0958 23.3274 26.6207C21.402 27.3982 16.8332 27.2187 14.7054 27.2187C12.5776 27.2187 8.00228 27.3915 6.08337 26.6207C4.8041 26.1024 3.81854 25.0991 3.30291 23.7901C2.53927 21.8299 2.71549 17.1787 2.71549 15.0125C2.71549 12.8464 2.54579 8.18848 3.30291 6.23495C3.81201 4.9326 4.79757 3.92926 6.08337 3.40433C8.00881 2.62691 12.5776 2.80631 14.7054 2.80631C16.8332 2.80631 21.4085 2.63355 23.3274 3.40433C24.6067 3.92261 25.5923 4.92595 26.1079 6.23495C26.8715 8.19512 26.6953 12.8464 26.6953 15.0125C26.6953 17.1787 26.8715 21.8366 26.1079 23.7901Z" fill="#FCFCFF"/>
</svg>
