<svg width="18" height="19" viewBox="0 0 18 19" fill="none" xmlns="http://www.w3.org/2000/svg">
<path d="M14.6 8.6499H2.7C1.76112 8.6499 1 9.41102 1 10.3499V16.2999C1 17.2388 1.76112 17.9999 2.7 17.9999H14.6C15.5389 17.9999 16.3 17.2388 16.3 16.2999V10.3499C16.3 9.41102 15.5389 8.6499 14.6 8.6499Z" stroke="#303030" stroke-width="2" stroke-linecap="round" stroke-linejoin="round"/>
<path d="M4.3999 8.65V5.25C4.3999 4.12283 4.84767 3.04183 5.6447 2.2448C6.44173 1.44777 7.52273 1 8.6499 1C9.77707 1 10.8581 1.44777 11.6551 2.2448C12.4521 3.04183 12.8999 4.12283 12.8999 5.25V8.65" stroke="#303030" stroke-width="2" stroke-linecap="round" stroke-linejoin="round"/>
</svg>
